<svg xmlns="http://www.w3.org/2000/svg" viewBox="0 0 125.55 73.86"><defs><style>.ffe5e60c-f94a-4a71-83a2-a3f3133b9779{fill:#fff;}</style></defs><title>logo_w</title><g id="a8d3c3ca-f377-4d8d-80ea-678ee7cfffe9" data-name="Capa 2"><g id="aeb4b919-611d-44a4-b3a7-b97bfe221cc4" data-name="Capa 1"><path class="ffe5e60c-f94a-4a71-83a2-a3f3133b9779" d="M11.35,57.45A9.94,9.94,0,0,0,19,53.8V58a13.68,13.68,0,0,1-7.67,2.31C5.07,60.34,0,56.47,0,51.69S5.07,43,11.35,43A13.59,13.59,0,0,1,19,45.35V49.6a10,10,0,0,0-7.67-3.7c-4.46,0-8,2.58-8,5.79s3.59,5.76,8.05,5.76"></path><path class="ffe5e60c-f94a-4a71-83a2-a3f3133b9779" d="M32.1,52.05h3.79L34,49.1Zm5.58,2.84H30.3l-2.69,4.16H23.93L34,43.36l10.1,15.69H40.43Z"></path><path class="ffe5e60c-f94a-4a71-83a2-a3f3133b9779" d="M55.51,59.57a13.94,13.94,0,0,1-7.09-1.76V54.05a12,12,0,0,0,7.12,2.66c2.69,0,4.37-.84,4.37-1.71,0-2.63-11.84-.55-11.84-6.57,0-3,3.76-4.31,7.21-4.31,2.4,0,5.06.52,6.42,1.53V49.1A11.63,11.63,0,0,0,55,47c-1.16,0-3.71.29-3.71,1.51,0,2.81,11.81.72,11.81,6.37,0,3.47-3.82,4.74-7.61,4.74"></path><rect class="ffe5e60c-f94a-4a71-83a2-a3f3133b9779" x="69.69" y="44.52" width="3.07" height="14.53"></rect><polygon class="ffe5e60c-f94a-4a71-83a2-a3f3133b9779" points="80.57 59.05 80.57 43.51 94.35 53.93 94.35 44.52 97.42 44.52 97.42 60.01 83.61 49.59 83.61 59.05 80.57 59.05"></polygon><path class="ffe5e60c-f94a-4a71-83a2-a3f3133b9779" d="M114.2,57.45c4.46,0,8-2.55,8-5.76s-3.59-5.79-8-5.79-8,2.58-8,5.79,3.62,5.76,8,5.76m0-14.45c6.28,0,11.35,3.91,11.35,8.69s-5.07,8.65-11.35,8.65-11.35-3.87-11.35-8.65S108,43,114.2,43"></path><path class="ffe5e60c-f94a-4a71-83a2-a3f3133b9779" d="M18.16,71.06a2.48,2.48,0,0,0-1.8-.75c-1,0-1.71.58-1.71,1.38s.7,1.38,1.79,1.38a2.21,2.21,0,0,0,1.73-.76l.84.45a3.06,3.06,0,0,1-2.52,1.1,3.54,3.54,0,0,1-1.93-.52,1.93,1.93,0,0,1-.9-1.65,1.88,1.88,0,0,1,.71-1.5,3.27,3.27,0,0,1,2.07-.67,3.18,3.18,0,0,1,2.63,1.21Z"></path><rect class="ffe5e60c-f94a-4a71-83a2-a3f3133b9779" x="22.36" y="69.64" width="1" height="4.11"></rect><path class="ffe5e60c-f94a-4a71-83a2-a3f3133b9779" d="M30.87,71c0-.31-.25-.53-.67-.53H28v1.08H30.2c.43,0,.67-.21.67-.55m0,2.79-1-1.45H28v1.45H27V69.64h3.36A1.38,1.38,0,0,1,31.86,71a1.17,1.17,0,0,1-.94,1.23l1,1.53Z"></path><path class="ffe5e60c-f94a-4a71-83a2-a3f3133b9779" d="M37.35,70.34c-.86,0-1.3.17-1.3.43s.12.24.36.3a13.43,13.43,0,0,0,1.55.12c1.29.12,1.91.43,1.91,1.24s-.84,1.42-2.4,1.42a4.5,4.5,0,0,1-2.67-.77l.55-.67a4,4,0,0,0,2.16.63c.83,0,1.3-.24,1.3-.57s-.54-.36-1.41-.4C35.8,72,35,71.68,35,70.86s.81-1.32,2.29-1.32a4.4,4.4,0,0,1,2.42.6l-.57.66a3.71,3.71,0,0,0-1.8-.46"></path><path class="ffe5e60c-f94a-4a71-83a2-a3f3133b9779" d="M45.21,70.39l-.9,1.69h1.8ZM47,73.75l-.48-.88H43.9l-.47.88h-1l2.18-4.11h1.24L48,73.75Z"></path><polygon class="ffe5e60c-f94a-4a71-83a2-a3f3133b9779" points="57.62 73.75 56.69 73.75 54.26 69.64 55.38 69.64 57.15 72.65 58.93 69.64 60.05 69.64 57.62 73.75"></polygon><path class="ffe5e60c-f94a-4a71-83a2-a3f3133b9779" d="M64.63,70.39l-.9,1.69h1.81Zm1.8,3.36L66,72.87H63.32l-.47.88h-1L64,69.64h1.23l2.18,4.11Z"></path><polygon class="ffe5e60c-f94a-4a71-83a2-a3f3133b9779" points="70.32 73.75 70.32 69.64 71.32 69.64 71.32 72.96 74.48 72.96 74.48 73.75 70.32 73.75"></polygon><polygon class="ffe5e60c-f94a-4a71-83a2-a3f3133b9779" points="77.5 73.75 77.5 69.64 81.95 69.64 81.95 70.43 78.5 70.43 78.5 71.27 80.9 71.27 80.9 72.06 78.5 72.06 78.5 72.96 82.11 72.96 82.11 73.75 77.5 73.75"></polygon><polygon class="ffe5e60c-f94a-4a71-83a2-a3f3133b9779" points="89.16 73.75 86.37 70.82 86.35 70.82 86.35 73.75 85.35 73.75 85.35 69.64 86.52 69.64 89.3 72.58 89.33 72.58 89.33 69.64 90.32 69.64 90.32 73.75 89.16 73.75"></polygon><path class="ffe5e60c-f94a-4a71-83a2-a3f3133b9779" d="M98.21,71.06a2.47,2.47,0,0,0-1.79-.75c-1,0-1.72.58-1.72,1.38s.71,1.38,1.79,1.38a2.21,2.21,0,0,0,1.73-.76l.84.45a3.06,3.06,0,0,1-2.52,1.1,3.54,3.54,0,0,1-1.93-.52,1.93,1.93,0,0,1-.9-1.65,1.88,1.88,0,0,1,.71-1.5,3.27,3.27,0,0,1,2.07-.67,3.18,3.18,0,0,1,2.63,1.21Z"></path><rect class="ffe5e60c-f94a-4a71-83a2-a3f3133b9779" x="102.41" y="69.64" width="1" height="4.11"></rect><path class="ffe5e60c-f94a-4a71-83a2-a3f3133b9779" d="M109.08,70.39l-.9,1.69H110Zm1.8,3.36-.47-.88h-2.63l-.48.88h-1l2.19-4.11h1.23l2.18,4.11Z"></path><path class="ffe5e60c-f94a-4a71-83a2-a3f3133b9779" d="M65.25,26.84c-20.71.63-32.46,3.3-36.92,4.24l-.55,2A7.07,7.07,0,0,0,28.6,33a198.52,198.52,0,0,1,36.7-4.92c21.19-.9,25.14-.7,32.78-.32-7.57-.69-12.45-1.53-32.83-.9"></path><path class="ffe5e60c-f94a-4a71-83a2-a3f3133b9779" d="M36.67,17.25c0,.1.21.21.61.28a9.57,9.57,0,0,0,2.39.18c-.18,1.1-.37,2.32-.57,3.87,5-1.87,11.9-3.5,23.19-4.22A91.72,91.72,0,0,1,72.9,17.2c.14,1.22.34,3.45.52,5.36-5-.22-10.78-.35-17.19-.35a164.24,164.24,0,0,0-21.8,1.41L34,25.27a217.65,217.65,0,0,1,22.16-1.94c4.79-.11,11.46-.16,17.32-.16.11,1.22.2,2.23.23,2.65.06.64.14-.66.18-2.65,3.63,0,6.93,0,9.22,0-2.64-.25-5.74-.47-9.21-.63,0-1.64,0-3.61,0-5.34a59.93,59.93,0,0,1,7.77,1.06,6.65,6.65,0,0,1,0-3.7l.75-.11a6.1,6.1,0,0,0,1.57-2.63A6.64,6.64,0,0,1,81,14.54a4.57,4.57,0,0,0,.9-2.16,8.43,8.43,0,0,1-2.41,2.38l-.31,0A4.49,4.49,0,0,0,80,12.52a7.65,7.65,0,0,1-2.28,2.37l-.35,0a8,8,0,0,0,.84-2.2A19,19,0,0,1,75.89,15h-.17a9.74,9.74,0,0,0,.51-2.4,7.84,7.84,0,0,1-2,2.48l-.46,0a8.33,8.33,0,0,0,.65-2.53,16.06,16.06,0,0,1-1.93,2.59h-.51c.13-.7.29-1.58.49-2.6a13.81,13.81,0,0,1-2,2.65H70a12.45,12.45,0,0,0,.52-2.69,16.41,16.41,0,0,1-1.94,2.73H68.3a12,12,0,0,0,.5-2.76A21.62,21.62,0,0,1,67,15.3h-.45a17.43,17.43,0,0,0,.35-2.94,27.1,27.1,0,0,1-1.69,3H64.9a16.19,16.19,0,0,0,.38-3,26.64,26.64,0,0,1-1.75,3h-.42a16.42,16.42,0,0,0,.38-3,26.28,26.28,0,0,1-1.74,3h-.42a18.86,18.86,0,0,0,.34-3.06,34.27,34.27,0,0,1-1.68,3h-.36a26.31,26.31,0,0,0,.3-3.09c-.58,1.18-1.13,2.18-1.63,3l-.4,0A22,22,0,0,0,58.08,12a23.79,23.79,0,0,1-1.48,3.1l-.42,0a21.47,21.47,0,0,0-.1-3.39A18.74,18.74,0,0,1,54.85,15l-.44,0a29.23,29.23,0,0,0-.15-3.51,25.89,25.89,0,0,1-1.18,3.42l-.56-.05c0-1-.08-2.14-.22-3.58-.36,1.33-.73,2.48-1.08,3.47l-.41,0c-.05-1-.13-2.16-.28-3.61-.35,1.34-.69,2.49-1,3.49L49,14.54c-.12-1-.25-2.18-.4-3.65-.36,1.34-.62,2.51-.83,3.52l-.36,0c-.2-1-.41-2.25-.61-3.73a23.31,23.31,0,0,0-.66,3.59l-.4-.05a25.85,25.85,0,0,1-.72-3.7,12.6,12.6,0,0,0-.45,3.56c-.17,0-.33,0-.49-.06a21,21,0,0,1-.86-3.72,10.34,10.34,0,0,0-.3,3.58l-.52-.06a11.64,11.64,0,0,1-1-3.74,9,9,0,0,0-.34,3.56l-.69-.09a15.62,15.62,0,0,1-1.2-3.79c-.7,2.15.06,4.76.73,6.4h0A14.06,14.06,0,0,1,36.57,9.3c-.89,3.61,1.2,6.62,2.09,7.71h-.08a16.88,16.88,0,0,1-5.26-8.25c-.49,4.75,3.28,8.47,3.28,8.47Z"></path><path class="ffe5e60c-f94a-4a71-83a2-a3f3133b9779" d="M43.11,3.77c.08-.46.35-.65.75-.55s.83.22,1.28.32a1.7,1.7,0,0,0,1.46-.31c.7-.5,1.67-1.28,2.28-1.74a1.48,1.48,0,0,1,1.32-.24c.84.17,1.93.42,2.84.61a.66.66,0,0,1,.54.69c0,.49,0,.89.09,1.38A1.47,1.47,0,0,0,54.84,5.3l4.43.79a1.55,1.55,0,0,0,1.58-.49c.44-.47,1-1,1.29-1.34a1,1,0,0,1,1-.26c1,.2,3.22.69,3.92.82a1.23,1.23,0,0,1,.89.65c.24.48.38.86.66,1.45A2.15,2.15,0,0,0,70,8.09l2,.39a1.84,1.84,0,0,0,1.57-.36c.5-.41,1-.81,1.37-1.18a.84.84,0,0,1,.91-.24l2.33.51c.42.07.71.24.8.62s0-.07.17.59a1.12,1.12,0,0,0,.8.85c.69.13,2.29.34,2.29.34a.88.88,0,0,0,1-.46c.19-.36.08,0,.22-.32a.61.61,0,0,1,.8-.36c1.24.26,1,.13,2.52.45.34.07.48.31.53.67.36,2.75,1.93,14.51,2.18,16,.29,1.65-1.39-15-1.54-16s-.4-1.19-1.12-1.34-1.76-.3-2.61-.48a1.11,1.11,0,0,0-1.41.52c-.19.42,0,.07-.16.38s-.32.23-.57.18-1.36-.18-1.56-.23a.74.74,0,0,1-.62-.5c-.11-.39-.09-.31-.16-.54a1.73,1.73,0,0,0-1.25-1.19c-.53-.1-2-.4-2.77-.6s-1,.14-1.47.57l-1.08,1a1.42,1.42,0,0,1-1.14.27c-.58-.1-1.2-.24-1.62-.31a1.23,1.23,0,0,1-.81-.64c-.23-.45-.56-1.07-.85-1.64a1.84,1.84,0,0,0-1.42-1C66,3.68,63.6,3.12,62.93,3a1.87,1.87,0,0,0-1.83.62c-.22.24-.75.79-1.12,1.16A1,1,0,0,1,59,5l-3.17-.58c-.56-.1-.75-.41-.81-1,0-.24-.09-.71-.13-1.17A1.37,1.37,0,0,0,53.61,1c-.81-.17-3-.68-4.18-.93a1.9,1.9,0,0,0-1.37.45L46,2a1.36,1.36,0,0,1-1.22.3L43.58,2a1.32,1.32,0,0,0-1.87,1.06c-.11.52-.53,2.75-.53,2.75l1.52.3.41-2.33"></path><path class="ffe5e60c-f94a-4a71-83a2-a3f3133b9779" d="M84,11.76A172.7,172.7,0,0,1,60.64,10c-13-1.61-19.51-3.18-25.26-4.09a1.8,1.8,0,0,0-2.1,1.35S48.44,9.69,60.15,11c14.71,1.58,19,1.07,23.8.81"></path></g></g></svg>